# xmcd
#
# Track frame offsets:
#	150
#	18137
#	35784
#	55906
#	75983
#	90418
#	114630
#	128746
#	149699
#	167865
#	186739
#	201604
#	223597
#	242261
#	262348
#	280065
#	301572
#	320208
#	337647
#
# Disc length: 4743 seconds
#
# Revision: 2
# Processed by: cddbd v1.4b42PL1 Copyright (c) Steve Scherf et al.
# Submitted via: EasyCDDAExtractor 4.5.0.2
#
DISCID=17128513
DTITLE=Lady Pank - Nasza Reputacja
DYEAR=2000
DGENRE=Rock
TTITLE0=S³oñcem opêtani
TTITLE1=Stacja - Alienacja
TTITLE2=Jak ruchomy cel
TTITLE3=Heroina
TTITLE4=Samotne Noce
TTITLE5=One
TTITLE6=W Niewoli
TTITLE7=Bulanda
TTITLE8=Na Granicy
TTITLE9=Twoja Reputacja
TTITLE10=Druga Strona
TTITLE11=Zostawcie Titanika
TTITLE12=Znowu Pada Deszcz
TTITLE13=M³ode Or³y
TTITLE14=Marchewkowe Pole
TTITLE15=Ma³a Wojna
TTITLE16=List Do B.
TTITLE17=Lataæ Mo¿e Ka¿dy
TTITLE18=Kryzysowa Narzeczona
EXTD=
EXTT0=
EXTT1=
EXTT2=
EXTT3=
EXTT4=
EXTT5=
EXTT6=
EXTT7=
EXTT8=
EXTT9=
EXTT10=
EXTT11=
EXTT12=
EXTT13=
EXTT14=
EXTT15=
EXTT16=
EXTT17=
EXTT18=
PLAYORDER=
